<svg width="404" height="262" viewBox="0 0 404 262" fill="none" xmlns="http://www.w3.org/2000/svg">
<g filter="url(#filter0_bd_30_3)">
<mask id="path-1-inside-1_30_3" fill="white">
<path fill-rule="evenodd" clip-rule="evenodd" d="M343.563 152.117C343.683 152.118 343.804 152.119 343.924 152.119C361.087 152.119 375 138.206 375 121.043C375 103.88 361.087 89.9673 343.924 89.9673C343.804 89.9673 343.683 89.968 343.563 89.9694V89.9673H335.535C335.825 87.8406 335.975 85.6694 335.975 83.4631C335.975 57.1205 314.62 35.7656 288.277 35.7656C261.935 35.7656 240.58 57.1205 240.58 83.4631C240.58 85.9487 240.77 88.3899 241.136 90.773C238.868 90.2459 236.504 89.9673 234.076 89.9673C216.913 89.9673 203 103.88 203 121.043C203 138.206 216.913 152.119 234.076 152.119C234.197 152.119 234.318 152.118 234.439 152.116L234.437 152.119H343.563V152.117Z"/>
</mask>
<path fill-rule="evenodd" clip-rule="evenodd" d="M343.563 152.117C343.683 152.118 343.804 152.119 343.924 152.119C361.087 152.119 375 138.206 375 121.043C375 103.88 361.087 89.9673 343.924 89.9673C343.804 89.9673 343.683 89.968 343.563 89.9694V89.9673H335.535C335.825 87.8406 335.975 85.6694 335.975 83.4631C335.975 57.1205 314.62 35.7656 288.277 35.7656C261.935 35.7656 240.58 57.1205 240.58 83.4631C240.58 85.9487 240.77 88.3899 241.136 90.773C238.868 90.2459 236.504 89.9673 234.076 89.9673C216.913 89.9673 203 103.88 203 121.043C203 138.206 216.913 152.119 234.076 152.119C234.197 152.119 234.318 152.118 234.439 152.116L234.437 152.119H343.563V152.117Z" fill="url(#paint0_linear_30_3)" shape-rendering="crispEdges"/>
<path d="M343.563 152.117L343.586 150.117C343.052 150.111 342.537 150.319 342.157 150.694C341.777 151.07 341.563 151.582 341.563 152.117H343.563ZM343.563 89.9694H341.563C341.563 90.5037 341.777 91.0159 342.157 91.3916C342.537 91.7673 343.051 91.9753 343.586 91.9692L343.563 89.9694ZM343.563 89.9673H345.563C345.563 88.8627 344.668 87.9673 343.563 87.9673V89.9673ZM335.535 89.9673L333.553 89.6971C333.475 90.2694 333.649 90.8474 334.028 91.2825C334.408 91.7176 334.957 91.9673 335.535 91.9673V89.9673ZM241.136 90.773L240.684 92.7211C241.33 92.8713 242.009 92.691 242.496 92.2397C242.983 91.7884 243.214 91.125 243.113 90.469L241.136 90.773ZM234.439 152.116L236.008 153.356C236.486 152.751 236.573 151.926 236.233 151.234C235.893 150.543 235.186 150.108 234.416 150.117L234.439 152.116ZM234.437 152.119L232.867 150.879C232.392 151.481 232.303 152.301 232.637 152.991C232.971 153.681 233.67 154.119 234.437 154.119V152.119ZM343.563 152.119V154.119C344.668 154.119 345.563 153.223 345.563 152.119H343.563ZM343.54 154.116C343.668 154.118 343.796 154.119 343.924 154.119V150.119C343.811 150.119 343.699 150.118 343.586 150.117L343.54 154.116ZM343.924 154.119C362.192 154.119 377 139.31 377 121.043H373C373 137.101 359.982 150.119 343.924 150.119V154.119ZM377 121.043C377 102.776 362.192 87.9673 343.924 87.9673V91.9673C359.982 91.9673 373 104.985 373 121.043H377ZM343.924 87.9673C343.796 87.9673 343.668 87.968 343.54 87.9695L343.586 91.9692C343.698 91.968 343.811 91.9673 343.924 91.9673V87.9673ZM341.563 89.9673V89.9694H345.563V89.9673H341.563ZM335.535 91.9673H343.563V87.9673H335.535V91.9673ZM337.517 90.2375C337.819 88.0215 337.975 85.76 337.975 83.4631H333.975C333.975 85.5787 333.831 87.6597 333.553 89.6971L337.517 90.2375ZM337.975 83.4631C337.975 56.0159 315.724 33.7656 288.277 33.7656V37.7656C313.515 37.7656 333.975 58.2251 333.975 83.4631H337.975ZM288.277 33.7656C260.83 33.7656 238.58 56.0159 238.58 83.4631H242.58C242.58 58.2251 263.039 37.7656 288.277 37.7656V33.7656ZM238.58 83.4631C238.58 86.0509 238.778 88.5937 239.16 91.077L243.113 90.469C242.762 88.1862 242.58 85.8466 242.58 83.4631H238.58ZM241.589 88.8249C239.173 88.2636 236.658 87.9673 234.076 87.9673V91.9673C236.351 91.9673 238.563 92.2283 240.684 92.7211L241.589 88.8249ZM234.076 87.9673C215.808 87.9673 201 102.776 201 121.043H205C205 104.985 218.018 91.9673 234.076 91.9673V87.9673ZM201 121.043C201 139.31 215.808 154.119 234.076 154.119V150.119C218.018 150.119 205 137.101 205 121.043H201ZM234.076 154.119C234.204 154.119 234.333 154.118 234.461 154.116L234.416 150.117C234.303 150.118 234.189 150.119 234.076 150.119V154.119ZM236.007 153.358L236.008 153.356L232.869 150.877L232.867 150.879L236.007 153.358ZM343.563 150.119H234.437V154.119H343.563V150.119ZM341.563 152.117V152.119H345.563V152.117H341.563Z" fill="url(#paint1_linear_30_3)" mask="url(#path-1-inside-1_30_3)"/>
</g>
<g filter="url(#filter1_bd_30_3)">
<mask id="path-3-inside-2_30_3" fill="white">
<path fill-rule="evenodd" clip-rule="evenodd" d="M265.5 196.763C265.666 196.765 265.833 196.766 266 196.766C289.748 196.766 309 177.514 309 153.766C309 130.017 289.748 110.766 266 110.766C265.833 110.766 265.666 110.767 265.5 110.768V110.766H254.391C254.793 107.823 255 104.818 255 101.766C255 65.3148 225.451 35.7656 189 35.7656C152.549 35.7656 123 65.3148 123 101.766C123 105.205 123.263 108.583 123.77 111.88C120.631 111.151 117.361 110.766 114 110.766C90.2518 110.766 71 130.017 71 153.766C71 177.514 90.2518 196.766 114 196.766C114.168 196.766 114.335 196.765 114.502 196.763L114.5 196.766H265.5V196.763Z"/>
</mask>
<path fill-rule="evenodd" clip-rule="evenodd" d="M265.5 196.763C265.666 196.765 265.833 196.766 266 196.766C289.748 196.766 309 177.514 309 153.766C309 130.017 289.748 110.766 266 110.766C265.833 110.766 265.666 110.767 265.5 110.768V110.766H254.391C254.793 107.823 255 104.818 255 101.766C255 65.3148 225.451 35.7656 189 35.7656C152.549 35.7656 123 65.3148 123 101.766C123 105.205 123.263 108.583 123.77 111.88C120.631 111.151 117.361 110.766 114 110.766C90.2518 110.766 71 130.017 71 153.766C71 177.514 90.2518 196.766 114 196.766C114.168 196.766 114.335 196.765 114.502 196.763L114.5 196.766H265.5V196.763Z" fill="url(#paint2_linear_30_3)" shape-rendering="crispEdges"/>
<path d="M265.5 196.763L265.523 194.763C264.988 194.757 264.474 194.965 264.094 195.341C263.714 195.716 263.5 196.228 263.5 196.763H265.5ZM265.5 110.768H263.5C263.5 111.303 263.714 111.815 264.094 112.191C264.474 112.566 264.988 112.774 265.523 112.768L265.5 110.768ZM265.5 110.766H267.5C267.5 109.661 266.605 108.766 265.5 108.766V110.766ZM254.391 110.766L252.41 110.495C252.332 111.068 252.505 111.646 252.885 112.081C253.265 112.516 253.814 112.766 254.391 112.766V110.766ZM123.77 111.88L123.318 113.829C123.964 113.979 124.643 113.798 125.13 113.347C125.617 112.896 125.848 112.232 125.747 111.576L123.77 111.88ZM114.502 196.763L116.072 198.002C116.549 197.398 116.637 196.572 116.297 195.881C115.957 195.189 115.25 194.754 114.479 194.763L114.502 196.763ZM114.5 196.766L112.931 195.526C112.455 196.127 112.366 196.948 112.7 197.638C113.034 198.327 113.733 198.766 114.5 198.766V196.766ZM265.5 196.766V198.766C266.605 198.766 267.5 197.87 267.5 196.766H265.5ZM265.477 198.763C265.651 198.765 265.825 198.766 266 198.766V194.766C265.841 194.766 265.682 194.765 265.523 194.763L265.477 198.763ZM266 198.766C290.853 198.766 311 178.618 311 153.766H307C307 176.409 288.644 194.766 266 194.766V198.766ZM311 153.766C311 128.913 290.853 108.766 266 108.766V112.766C288.644 112.766 307 131.122 307 153.766H311ZM266 108.766C265.826 108.766 265.651 108.767 265.477 108.769L265.523 112.768C265.682 112.767 265.841 112.766 266 112.766V108.766ZM263.5 110.766V110.768H267.5V110.766H263.5ZM254.391 112.766H265.5V108.766H254.391V112.766ZM256.373 111.036C256.787 108.004 257 104.909 257 101.766H253C253 104.728 252.799 107.642 252.41 110.495L256.373 111.036ZM257 101.766C257 64.2103 226.555 33.7656 189 33.7656V37.7656C224.346 37.7656 253 66.4194 253 101.766H257ZM189 33.7656C151.445 33.7656 121 64.2103 121 101.766H125C125 66.4194 153.654 37.7656 189 37.7656V33.7656ZM121 101.766C121 105.307 121.271 108.787 121.793 112.184L125.747 111.576C125.255 108.379 125 105.103 125 101.766H121ZM124.223 109.932C120.937 109.169 117.514 108.766 114 108.766V112.766C117.207 112.766 120.326 113.134 123.318 113.829L124.223 109.932ZM114 108.766C89.1472 108.766 69 128.913 69 153.766H73C73 131.122 91.3563 112.766 114 112.766V108.766ZM69 153.766C69 178.618 89.1472 198.766 114 198.766V194.766C91.3563 194.766 73 176.409 73 153.766H69ZM114 198.766C114.175 198.766 114.35 198.765 114.525 198.763L114.479 194.763C114.32 194.765 114.16 194.766 114 194.766V198.766ZM116.069 198.005L116.072 198.002L112.933 195.523L112.931 195.526L116.069 198.005ZM265.5 194.766H114.5V198.766H265.5V194.766ZM263.5 196.763V196.766H267.5V196.763H263.5Z" fill="url(#paint3_linear_30_3)" mask="url(#path-3-inside-2_30_3)"/>
</g>
<defs>
<filter id="filter0_bd_30_3" x="132" y="0.765625" width="272" height="216.353" filterUnits="userSpaceOnUse" color-interpolation-filters="sRGB">
<feFlood flood-opacity="0" result="BackgroundImageFix"/>
<feGaussianBlur in="BackgroundImageFix" stdDeviation="7"/>
<feComposite in2="SourceAlpha" operator="in" result="effect1_backgroundBlur_30_3"/>
<feColorMatrix in="SourceAlpha" type="matrix" values="0 0 0 0 0 0 0 0 0 0 0 0 0 0 0 0 0 0 127 0" result="hardAlpha"/>
<feOffset dx="-21" dy="15"/>
<feGaussianBlur stdDeviation="25"/>
<feComposite in2="hardAlpha" operator="out"/>
<feColorMatrix type="matrix" values="0 0 0 0 0.113438 0 0 0 0 0.148981 0 0 0 0 0.275 0 0 0 0.25 0"/>
<feBlend mode="normal" in2="effect1_backgroundBlur_30_3" result="effect2_dropShadow_30_3"/>
<feBlend mode="normal" in="SourceGraphic" in2="effect2_dropShadow_30_3" result="shape"/>
</filter>
<filter id="filter1_bd_30_3" x="0" y="0.765625" width="338" height="261" filterUnits="userSpaceOnUse" color-interpolation-filters="sRGB">
<feFlood flood-opacity="0" result="BackgroundImageFix"/>
<feGaussianBlur in="BackgroundImageFix" stdDeviation="7"/>
<feComposite in2="SourceAlpha" operator="in" result="effect1_backgroundBlur_30_3"/>
<feColorMatrix in="SourceAlpha" type="matrix" values="0 0 0 0 0 0 0 0 0 0 0 0 0 0 0 0 0 0 127 0" result="hardAlpha"/>
<feOffset dx="-21" dy="15"/>
<feGaussianBlur stdDeviation="25"/>
<feComposite in2="hardAlpha" operator="out"/>
<feColorMatrix type="matrix" values="0 0 0 0 0.113725 0 0 0 0 0.14902 0 0 0 0 0.27451 0 0 0 0.25 0"/>
<feBlend mode="normal" in2="effect1_backgroundBlur_30_3" result="effect2_dropShadow_30_3"/>
<feBlend mode="normal" in="SourceGraphic" in2="effect2_dropShadow_30_3" result="shape"/>
</filter>
<linearGradient id="paint0_linear_30_3" x1="297" y1="39.2656" x2="297" y2="165.266" gradientUnits="userSpaceOnUse">
<stop stop-color="white" stop-opacity="0.45"/>
<stop offset="1" stop-color="white" stop-opacity="0"/>
</linearGradient>
<linearGradient id="paint1_linear_30_3" x1="289" y1="35.7656" x2="289" y2="152.119" gradientUnits="userSpaceOnUse">
<stop stop-color="white"/>
<stop offset="1" stop-color="white" stop-opacity="0"/>
</linearGradient>
<linearGradient id="paint2_linear_30_3" x1="190" y1="-15.7344" x2="190" y2="219.266" gradientUnits="userSpaceOnUse">
<stop stop-color="white"/>
<stop offset="1" stop-color="white" stop-opacity="0"/>
</linearGradient>
<linearGradient id="paint3_linear_30_3" x1="190" y1="35.7656" x2="190" y2="196.766" gradientUnits="userSpaceOnUse">
<stop stop-color="white"/>
<stop offset="1" stop-color="white" stop-opacity="0"/>
</linearGradient>
</defs>
</svg>
