<svg width="1127" height="1127" viewBox="0 0 1127 1127" fill="none" xmlns="http://www.w3.org/2000/svg">
<rect width="1127" height="1127" fill="#1F1F28"/>
<g filter="url(#filter0_f_4_1047)">
<circle cx="585" cy="515" r="61" fill="#FFC701" fill-opacity="0.5"/>
</g>
<circle cx="585" cy="517" r="58" fill="url(#paint0_linear_4_1047)" stroke="url(#paint1_linear_4_1047)" stroke-width="2"/>
<mask id="mask0_4_1047" style="mask-type:alpha" maskUnits="userSpaceOnUse" x="526" y="491" width="118" height="85">
<path d="M644 517C644 549.585 617.585 576 585 576C552.415 576 526 549.585 526 517C526 484.415 547.915 492 580.5 492C613.085 492 644 484.415 644 517Z" fill="url(#paint2_linear_4_1047)"/>
</mask>
<g mask="url(#mask0_4_1047)">
<g filter="url(#filter1_f_4_1047)">
<path fill-rule="evenodd" clip-rule="evenodd" d="M631.5 667.997C631.666 667.999 631.833 668 632 668C655.748 668 675 648.748 675 625C675 601.252 655.748 582 632 582C631.833 582 631.666 582.001 631.5 582.003V582H604.087C604.688 578.423 605 574.748 605 571C605 534.549 575.451 505 539 505C502.549 505 473 534.549 473 571C473 574.894 473.337 578.709 473.984 582.418C453.084 585.344 437 603.293 437 625C437 648.748 456.252 668 480 668C480.168 668 480.335 667.999 480.502 667.997L480.5 668H631.5V667.997Z" fill="#E18700"/>
</g>
</g>
<g filter="url(#filter2_bd_4_1047)">
<mask id="path-5-inside-1_4_1047" fill="white">
<path fill-rule="evenodd" clip-rule="evenodd" d="M606.5 672.997C606.666 672.999 606.833 673 607 673C630.748 673 650 653.748 650 630C650 606.252 630.748 587 607 587C606.833 587 606.666 587.001 606.5 587.003V587H595.391C595.793 584.057 596 581.053 596 578C596 541.549 566.451 512 530 512C493.549 512 464 541.549 464 578C464 581.439 464.263 584.817 464.77 588.115C461.631 587.386 458.361 587 455 587C431.252 587 412 606.252 412 630C412 653.748 431.252 673 455 673C455.168 673 455.335 672.999 455.502 672.997L455.5 673H606.5V672.997Z"/>
</mask>
<path fill-rule="evenodd" clip-rule="evenodd" d="M606.5 672.997C606.666 672.999 606.833 673 607 673C630.748 673 650 653.748 650 630C650 606.252 630.748 587 607 587C606.833 587 606.666 587.001 606.5 587.003V587H595.391C595.793 584.057 596 581.053 596 578C596 541.549 566.451 512 530 512C493.549 512 464 541.549 464 578C464 581.439 464.263 584.817 464.77 588.115C461.631 587.386 458.361 587 455 587C431.252 587 412 606.252 412 630C412 653.748 431.252 673 455 673C455.168 673 455.335 672.999 455.502 672.997L455.5 673H606.5V672.997Z" fill="url(#paint3_linear_4_1047)" shape-rendering="crispEdges"/>
<path d="M606.5 672.997L606.523 670.997C605.988 670.991 605.474 671.199 605.094 671.575C604.714 671.951 604.5 672.463 604.5 672.997H606.5ZM606.5 587.003H604.5C604.5 587.537 604.714 588.049 605.094 588.425C605.474 588.801 605.988 589.009 606.523 589.003L606.5 587.003ZM606.5 587H608.5C608.5 585.895 607.605 585 606.5 585V587ZM595.391 587L593.41 586.73C593.332 587.302 593.505 587.88 593.885 588.315C594.265 588.75 594.814 589 595.391 589V587ZM464.77 588.115L464.318 590.063C464.964 590.213 465.643 590.033 466.13 589.582C466.617 589.13 466.848 588.467 466.747 587.811L464.77 588.115ZM455.502 672.997L457.072 674.237C457.549 673.632 457.637 672.807 457.297 672.115C456.957 671.423 456.25 670.988 455.479 670.997L455.502 672.997ZM455.5 673L453.931 671.76C453.455 672.362 453.366 673.182 453.7 673.872C454.034 674.562 454.733 675 455.5 675V673ZM606.5 673V675C607.605 675 608.5 674.105 608.5 673H606.5ZM606.477 674.997C606.651 674.999 606.825 675 607 675V671C606.841 671 606.682 670.999 606.523 670.997L606.477 674.997ZM607 675C631.853 675 652 654.853 652 630H648C648 652.644 629.644 671 607 671V675ZM652 630C652 605.147 631.853 585 607 585V589C629.644 589 648 607.356 648 630H652ZM607 585C606.826 585 606.651 585.001 606.477 585.003L606.523 589.003C606.682 589.001 606.841 589 607 589V585ZM604.5 587V587.003H608.5V587H604.5ZM595.391 589H606.5V585H595.391V589ZM597.373 587.27C597.787 584.238 598 581.143 598 578H594C594 580.962 593.799 583.876 593.41 586.73L597.373 587.27ZM598 578C598 540.445 567.555 510 530 510V514C565.346 514 594 542.654 594 578H598ZM530 510C492.445 510 462 540.445 462 578H466C466 542.654 494.654 514 530 514V510ZM462 578C462 581.542 462.271 585.021 462.793 588.419L466.747 587.811C466.255 584.614 466 581.337 466 578H462ZM465.223 586.167C461.937 585.403 458.514 585 455 585V589C458.207 589 461.326 589.368 464.318 590.063L465.223 586.167ZM455 585C430.147 585 410 605.147 410 630H414C414 607.356 432.356 589 455 589V585ZM410 630C410 654.853 430.147 675 455 675V671C432.356 671 414 652.644 414 630H410ZM455 675C455.175 675 455.35 674.999 455.525 674.997L455.479 670.997C455.32 670.999 455.16 671 455 671V675ZM457.069 674.24L457.072 674.237L453.933 671.757L453.931 671.76L457.069 674.24ZM606.5 671H455.5V675H606.5V671ZM604.5 672.997V673H608.5V672.997H604.5Z" fill="url(#paint4_linear_4_1047)" mask="url(#path-5-inside-1_4_1047)"/>
</g>
<g filter="url(#filter3_bd_4_1047)">
<mask id="path-7-inside-2_4_1047" fill="white">
<path fill-rule="evenodd" clip-rule="evenodd" d="M684.563 628.351C684.683 628.352 684.804 628.353 684.924 628.353C702.087 628.353 716 614.44 716 597.277C716 580.115 702.087 566.202 684.924 566.202C684.804 566.202 684.683 566.202 684.563 566.204V566.202H676.535C676.825 564.075 676.975 561.904 676.975 559.697C676.975 533.355 655.62 512 629.277 512C602.935 512 581.58 533.355 581.58 559.697C581.58 562.183 581.77 564.624 582.136 567.007C579.868 566.48 577.504 566.202 575.076 566.202C557.913 566.202 544 580.115 544 597.277C544 614.44 557.913 628.353 575.076 628.353C575.197 628.353 575.318 628.352 575.439 628.351L575.437 628.353H684.563V628.351Z"/>
</mask>
<path fill-rule="evenodd" clip-rule="evenodd" d="M684.563 628.351C684.683 628.352 684.804 628.353 684.924 628.353C702.087 628.353 716 614.44 716 597.277C716 580.115 702.087 566.202 684.924 566.202C684.804 566.202 684.683 566.202 684.563 566.204V566.202H676.535C676.825 564.075 676.975 561.904 676.975 559.697C676.975 533.355 655.62 512 629.277 512C602.935 512 581.58 533.355 581.58 559.697C581.58 562.183 581.77 564.624 582.136 567.007C579.868 566.48 577.504 566.202 575.076 566.202C557.913 566.202 544 580.115 544 597.277C544 614.44 557.913 628.353 575.076 628.353C575.197 628.353 575.318 628.352 575.439 628.351L575.437 628.353H684.563V628.351Z" fill="url(#paint5_linear_4_1047)" shape-rendering="crispEdges"/>
<path d="M684.563 628.351L684.586 626.351C684.052 626.345 683.537 626.553 683.157 626.929C682.777 627.304 682.563 627.816 682.563 628.351H684.563ZM684.563 566.204H682.563C682.563 566.738 682.777 567.25 683.157 567.626C683.537 568.002 684.051 568.21 684.586 568.204L684.563 566.204ZM684.563 566.202H686.563C686.563 565.097 685.668 564.202 684.563 564.202V566.202ZM676.535 566.202L674.553 565.931C674.475 566.504 674.649 567.082 675.028 567.517C675.408 567.952 675.957 568.202 676.535 568.202V566.202ZM582.136 567.007L581.684 568.955C582.33 569.106 583.009 568.925 583.496 568.474C583.983 568.023 584.214 567.359 584.113 566.703L582.136 567.007ZM575.439 628.351L577.008 629.59C577.486 628.985 577.573 628.16 577.233 627.468C576.893 626.777 576.186 626.342 575.416 626.351L575.439 628.351ZM575.437 628.353L573.867 627.114C573.392 627.715 573.303 628.535 573.637 629.225C573.971 629.915 574.67 630.353 575.437 630.353V628.353ZM684.563 628.353V630.353C685.668 630.353 686.563 629.458 686.563 628.353H684.563ZM684.54 630.351C684.668 630.352 684.796 630.353 684.924 630.353V626.353C684.811 626.353 684.699 626.352 684.586 626.351L684.54 630.351ZM684.924 630.353C703.192 630.353 718 615.544 718 597.277H714C714 613.335 700.982 626.353 684.924 626.353V630.353ZM718 597.277C718 579.01 703.192 564.202 684.924 564.202V568.202C700.982 568.202 714 581.219 714 597.277H718ZM684.924 564.202C684.796 564.202 684.668 564.202 684.54 564.204L684.586 568.204C684.699 568.202 684.811 568.202 684.924 568.202V564.202ZM682.563 566.202V566.204H686.563V566.202H682.563ZM676.535 568.202H684.563V564.202H676.535V568.202ZM678.517 566.472C678.819 564.256 678.975 561.994 678.975 559.697H674.975C674.975 561.813 674.831 563.894 674.553 565.931L678.517 566.472ZM678.975 559.697C678.975 532.25 656.724 510 629.277 510V514C654.515 514 674.975 534.459 674.975 559.697H678.975ZM629.277 510C601.83 510 579.58 532.25 579.58 559.697H583.58C583.58 534.459 604.039 514 629.277 514V510ZM579.58 559.697C579.58 562.285 579.778 564.828 580.16 567.311L584.113 566.703C583.762 564.421 583.58 562.081 583.58 559.697H579.58ZM582.589 565.059C580.173 564.498 577.658 564.202 575.076 564.202V568.202C577.351 568.202 579.563 568.463 581.684 568.955L582.589 565.059ZM575.076 564.202C556.808 564.202 542 579.01 542 597.277H546C546 581.219 559.018 568.202 575.076 568.202V564.202ZM542 597.277C542 615.544 556.808 630.353 575.076 630.353V626.353C559.018 626.353 546 613.335 546 597.277H542ZM575.076 630.353C575.204 630.353 575.333 630.352 575.461 630.351L575.416 626.351C575.303 626.352 575.189 626.353 575.076 626.353V630.353ZM577.007 629.592L577.008 629.59L573.869 627.112L573.867 627.114L577.007 629.592ZM684.563 626.353H575.437V630.353H684.563V626.353ZM682.563 628.351V628.353H686.563V628.351H682.563Z" fill="url(#paint6_linear_4_1047)" mask="url(#path-7-inside-2_4_1047)"/>
</g>
<defs>
<filter id="filter0_f_4_1047" x="480" y="410" width="210" height="210" filterUnits="userSpaceOnUse" color-interpolation-filters="sRGB">
<feFlood flood-opacity="0" result="BackgroundImageFix"/>
<feBlend mode="normal" in="SourceGraphic" in2="BackgroundImageFix" result="shape"/>
<feGaussianBlur stdDeviation="22" result="effect1_foregroundBlur_4_1047"/>
</filter>
<filter id="filter1_f_4_1047" x="423" y="491" width="266" height="191" filterUnits="userSpaceOnUse" color-interpolation-filters="sRGB">
<feFlood flood-opacity="0" result="BackgroundImageFix"/>
<feBlend mode="normal" in="SourceGraphic" in2="BackgroundImageFix" result="shape"/>
<feGaussianBlur stdDeviation="7" result="effect1_foregroundBlur_4_1047"/>
</filter>
<filter id="filter2_bd_4_1047" x="341" y="477" width="338" height="261" filterUnits="userSpaceOnUse" color-interpolation-filters="sRGB">
<feFlood flood-opacity="0" result="BackgroundImageFix"/>
<feGaussianBlur in="BackgroundImageFix" stdDeviation="7"/>
<feComposite in2="SourceAlpha" operator="in" result="effect1_backgroundBlur_4_1047"/>
<feColorMatrix in="SourceAlpha" type="matrix" values="0 0 0 0 0 0 0 0 0 0 0 0 0 0 0 0 0 0 127 0" result="hardAlpha"/>
<feOffset dx="-21" dy="15"/>
<feGaussianBlur stdDeviation="25"/>
<feComposite in2="hardAlpha" operator="out"/>
<feColorMatrix type="matrix" values="0 0 0 0 0.113725 0 0 0 0 0.14902 0 0 0 0 0.27451 0 0 0 0.25 0"/>
<feBlend mode="normal" in2="effect1_backgroundBlur_4_1047" result="effect2_dropShadow_4_1047"/>
<feBlend mode="normal" in="SourceGraphic" in2="effect2_dropShadow_4_1047" result="shape"/>
</filter>
<filter id="filter3_bd_4_1047" x="473" y="477" width="272" height="216.353" filterUnits="userSpaceOnUse" color-interpolation-filters="sRGB">
<feFlood flood-opacity="0" result="BackgroundImageFix"/>
<feGaussianBlur in="BackgroundImageFix" stdDeviation="7"/>
<feComposite in2="SourceAlpha" operator="in" result="effect1_backgroundBlur_4_1047"/>
<feColorMatrix in="SourceAlpha" type="matrix" values="0 0 0 0 0 0 0 0 0 0 0 0 0 0 0 0 0 0 127 0" result="hardAlpha"/>
<feOffset dx="-21" dy="15"/>
<feGaussianBlur stdDeviation="25"/>
<feComposite in2="hardAlpha" operator="out"/>
<feColorMatrix type="matrix" values="0 0 0 0 0.113438 0 0 0 0 0.148981 0 0 0 0 0.275 0 0 0 0.25 0"/>
<feBlend mode="normal" in2="effect1_backgroundBlur_4_1047" result="effect2_dropShadow_4_1047"/>
<feBlend mode="normal" in="SourceGraphic" in2="effect2_dropShadow_4_1047" result="shape"/>
</filter>
<linearGradient id="paint0_linear_4_1047" x1="585" y1="458" x2="585" y2="576" gradientUnits="userSpaceOnUse">
<stop stop-color="#FFE600"/>
<stop offset="1" stop-color="#FF7A00"/>
</linearGradient>
<linearGradient id="paint1_linear_4_1047" x1="585" y1="458" x2="585" y2="576" gradientUnits="userSpaceOnUse">
<stop stop-color="white"/>
<stop offset="1" stop-color="white" stop-opacity="0"/>
</linearGradient>
<linearGradient id="paint2_linear_4_1047" x1="585" y1="458" x2="585" y2="576" gradientUnits="userSpaceOnUse">
<stop stop-color="#FFD600"/>
<stop offset="1" stop-color="#FF7A00"/>
</linearGradient>
<linearGradient id="paint3_linear_4_1047" x1="531" y1="460.5" x2="531" y2="695.5" gradientUnits="userSpaceOnUse">
<stop stop-color="white"/>
<stop offset="1" stop-color="white" stop-opacity="0"/>
</linearGradient>
<linearGradient id="paint4_linear_4_1047" x1="531" y1="512" x2="531" y2="673" gradientUnits="userSpaceOnUse">
<stop stop-color="white"/>
<stop offset="1" stop-color="white" stop-opacity="0"/>
</linearGradient>
<linearGradient id="paint5_linear_4_1047" x1="638" y1="515.5" x2="638" y2="641.5" gradientUnits="userSpaceOnUse">
<stop stop-color="white"/>
<stop offset="1" stop-color="white" stop-opacity="0"/>
</linearGradient>
<linearGradient id="paint6_linear_4_1047" x1="630" y1="512" x2="630" y2="628.353" gradientUnits="userSpaceOnUse">
<stop stop-color="white"/>
<stop offset="1" stop-color="white" stop-opacity="0"/>
</linearGradient>
</defs>
</svg>
